<?xml version="1.0" encoding="utf-8"?>
<!-- Generator: Adobe Illustrator 21.1.0, SVG Export Plug-In . SVG Version: 6.00 Build 0)  -->
<svg version="1.1" id="Capa_1" xmlns="http://www.w3.org/2000/svg" xmlns:xlink="http://www.w3.org/1999/xlink" x="0px" y="0px"
	 viewBox="0 0 57.2 57.2" style="enable-background:new 0 0 57.2 57.2;" xml:space="preserve">
<style type="text/css">
	.st0{fill:#E6EAED;}
	.st1{fill:#FFFFFF;}
	.st2{fill:#424A60;}
	.st3{fill:#939CB2;}
	.st4{fill:#1DB3EB;}
	.st5{fill:#D9DEE2;}
	.st6{enable-background:new    ;}
</style>
<circle class="st0" cx="28.6" cy="29.2" r="26"/>
<circle class="st1" cx="28.6" cy="29.2" r="18"/>
<path class="st2" d="M12.6,57.2c-0.3,0-0.5-0.1-0.7-0.3c-0.4-0.4-0.4-1,0-1.4l3.9-3.9c0.4-0.4,1-0.4,1.4,0s0.4,1,0,1.4l-3.9,3.9
	C13.1,57.1,12.8,57.2,12.6,57.2z"/>
<path class="st2" d="M44.6,57.2c-0.3,0-0.5-0.1-0.7-0.3l-4-4c-0.4-0.4-0.4-1,0-1.4s1-0.4,1.4,0l4,4c0.4,0.4,0.4,1,0,1.4
	C45.1,57.1,44.8,57.2,44.6,57.2z"/>
<path class="st3" d="M46.7,11.4c-0.3,0-0.5-0.1-0.7-0.3c-0.4-0.4-0.4-1,0-1.4l3-3c0.4-0.4,1-0.4,1.4,0s0.4,1,0,1.4l-3,3
	C47.2,11.3,46.9,11.4,46.7,11.4z"/>
<path class="st3" d="M10.5,11.4c-0.3,0-0.5-0.1-0.7-0.3l-3-3c-0.4-0.4-0.4-1,0-1.4s1-0.4,1.4,0l3,3c0.4,0.4,0.4,1,0,1.4
	C11,11.3,10.7,11.4,10.5,11.4z"/>
<path class="st4" d="M28.6,57.2c-15.4,0-28-12.6-28-28s12.6-28,28-28s28,12.6,28,28S44,57.2,28.6,57.2z M28.6,5.2
	c-13.2,0-24,10.8-24,24s10.8,24,24,24s24-10.8,24-24S41.8,5.2,28.6,5.2z"/>
<g>
	<path class="st3" d="M28.6,6c-0.6,0-1,0.4-1,1v1c0,0.6,0.4,1,1,1s1-0.4,1-1V7C29.6,6.5,29.1,6,28.6,6z"/>
	<path class="st3" d="M28.6,49c-0.6,0-1,0.4-1,1v1c0,0.6,0.4,1,1,1s1-0.4,1-1v-1C29.6,49.5,29.1,49,28.6,49z"/>
	<path class="st3" d="M50.6,28h-1c-0.6,0-1,0.4-1,1s0.4,1,1,1h1c0.6,0,1-0.4,1-1S51.1,28,50.6,28z"/>
	<path class="st3" d="M7.6,28h-1c-0.6,0-1,0.4-1,1s0.4,1,1,1h1c0.6,0,1-0.4,1-1S8.1,28,7.6,28z"/>
	<path class="st3" d="M43.4,12.8l-0.7,0.7c-0.4,0.4-0.4,1,0,1.4c0.2,0.2,0.5,0.3,0.7,0.3s0.5-0.1,0.7-0.3l0.7-0.7
		c0.4-0.4,0.4-1,0-1.4S43.8,12.4,43.4,12.8z"/>
	<path class="st3" d="M13,43.2l-0.7,0.7c-0.4,0.4-0.4,1,0,1.4c0.2,0.2,0.5,0.3,0.7,0.3s0.5-0.1,0.7-0.3l0.7-0.7c0.4-0.4,0.4-1,0-1.4
		S13.4,42.8,13,43.2z"/>
	<path class="st3" d="M44.1,43.2c-0.4-0.4-1-0.4-1.4,0s-0.4,1,0,1.4l0.7,0.7c0.2,0.2,0.5,0.3,0.7,0.3s0.5-0.1,0.7-0.3
		c0.4-0.4,0.4-1,0-1.4L44.1,43.2z"/>
	<path class="st3" d="M13.7,12.8c-0.4-0.4-1-0.4-1.4,0s-0.4,1,0,1.4l0.7,0.7c0.2,0.2,0.5,0.3,0.7,0.3s0.5-0.1,0.7-0.3
		c0.4-0.4,0.4-1,0-1.4L13.7,12.8z"/>
</g>
<path class="st5" d="M54.5,2.1c2.8,2.8,2.8,7.3,0,10.1L44.4,2.1C47.2-0.7,51.7-0.7,54.5,2.1z"/>
<path class="st5" d="M2.7,2.1c-2.8,2.8-2.8,7.3,0,10.1L12.7,2.1C10-0.7,5.4-0.7,2.7,2.1z"/>
<g class="st6">
	<path class="st2" d="M20.3,23.8c-0.2,0.1-0.4,0.2-0.6,0.2c-0.3,0-0.7-0.2-0.9-0.5l-0.7-1c-0.1-0.2-0.2-0.4-0.2-0.6
		c0-0.4,0.2-0.7,0.5-0.9l3.2-2.3c0.4-0.3,0.7-0.5,1.2-0.5h0.9c0.6,0,1.1,0.5,1.1,1.1v14.6c0,0.6-0.5,1.1-1.1,1.1h-1.4
		c-0.6,0-1.1-0.5-1.1-1.1V23.3L20.3,23.8z"/>
	<path class="st2" d="M33.3,18c3.9,0,5.8,3.4,5.8,8.6s-1.8,8.6-5.8,8.6c-3.9,0-5.9-3.4-5.9-8.6S29.4,18,33.3,18z M33.4,31.8
		c1.4,0,1.9-1.3,1.9-5.2c0-4-0.6-5.2-2-5.2c-1.3,0-2,1.4-2,5.2C31.4,30.5,32.2,31.8,33.4,31.8z"/>
</g>
<g>
	<path class="st2" d="M23.9,42.3c0,0.1-0.1,0.3-0.3,0.3h-0.4c-0.1,0-0.3-0.1-0.3-0.3v-3.6c0-0.1,0.1-0.3,0.3-0.3h0.5
		c0.1,0,0.2,0.1,0.3,0.2l1.2,1.6l1.1-1.6c0.1-0.1,0.2-0.2,0.3-0.2H27c0.1,0,0.3,0.1,0.3,0.3v3.6c0,0.1-0.1,0.3-0.3,0.3h-0.4
		c-0.1,0-0.3-0.1-0.3-0.3v-2.4l-0.9,1.2c-0.1,0.1-0.2,0.2-0.4,0.2s-0.3-0.1-0.4-0.2l-0.9-1.2V42.3z"/>
	<path class="st2" d="M29.4,42.3c0,0.1-0.1,0.3-0.3,0.3h-0.4c-0.1,0-0.3-0.1-0.3-0.3v-3.6c0-0.1,0.1-0.3,0.3-0.3h0.4
		c0.1,0,0.3,0.1,0.3,0.3V42.3z"/>
	<path class="st2" d="M33.9,38.4c0.1,0,0.3,0.1,0.3,0.3v3.6c0,0.1-0.1,0.3-0.3,0.3h-0.3c-0.1,0-0.3-0.1-0.3-0.2l-1.9-2.4v2.2
		c0,0.1-0.1,0.3-0.3,0.3h-0.3c-0.1,0-0.3-0.1-0.3-0.3v-3.6c0-0.1,0.1-0.3,0.3-0.3h0.3c0.1,0,0.3,0.1,0.3,0.2l1.9,2.4v-2.3
		c0-0.1,0.1-0.3,0.3-0.3H33.9z"/>
</g>
</svg>
